<?xml version="1.0" encoding="utf-8"?><svg class="svg-sprite" xmlns="http://www.w3.org/2000/svg" xmlns:xlink="http://www.w3.org/1999/xlink"><symbol fill="none" viewBox="0 0 12 12" id="add" xmlns="http://www.w3.org/2000/svg"><path d="M10.8 4.8H7.2V1.2a1.2 1.2 0 0 0-2.4 0v3.6H1.2a1.2 1.2 0 0 0 0 2.4h3.6v3.6a1.2 1.2 0 0 0 2.4 0V7.2h3.6a1.2 1.2 0 0 0 0-2.4Z" fill="currentColor"/></symbol><symbol fill="none" viewBox="0 0 10 6" id="arrow-top" xmlns="http://www.w3.org/2000/svg"><path d="M10 5a.6.6 0 0 1-.186.44.6.6 0 0 1-.439.185H.625a.6.6 0 0 1-.44-.186A.6.6 0 0 1 0 5a.6.6 0 0 1 .186-.44L4.56.187A.6.6 0 0 1 5 0a.6.6 0 0 1 .44.186L9.813 4.56A.6.6 0 0 1 10 5Z" fill="#2C2C2C"/></symbol><symbol fill="currentColor" viewBox="0 0 18 18" id="cart" xmlns="http://www.w3.org/2000/svg"><path d="M6.333 16.333a1.333 1.333 0 1 0 0-2.666 1.333 1.333 0 0 0 0 2.666ZM14.333 16.333a1.333 1.333 0 1 0 0-2.666 1.333 1.333 0 0 0 0 2.666ZM4.78 5h11.553l-1.12 5.593a1.334 1.334 0 0 1-1.333 1.074H6.833a1.334 1.334 0 0 1-1.333-1.16l-1.013-7.68a1.333 1.333 0 0 0-1.32-1.16h-1.5" stroke="currentColor" stroke-width="1.8" stroke-linecap="round" stroke-linejoin="round"/></symbol><symbol fill="none" viewBox="0 0 10 6" id="chevron-top" xmlns="http://www.w3.org/2000/svg"><path d="M10 5a.6.6 0 0 1-.186.44.6.6 0 0 1-.439.185H.625a.6.6 0 0 1-.44-.186A.6.6 0 0 1 0 5a.6.6 0 0 1 .186-.44L4.56.187A.6.6 0 0 1 5 0a.6.6 0 0 1 .44.186L9.813 4.56A.6.6 0 0 1 10 5Z" fill="#2C2C2C"/></symbol><symbol viewBox="0 0 48 48" id="clear" xmlns="http://www.w3.org/2000/svg"><path d="M38 12.83 35.17 10 24 21.17 12.83 10 10 12.83 21.17 24 10 35.17 12.83 38 24 26.83 35.17 38 38 35.17 26.83 24z"/><path d="M0 0h48v48H0z" fill="none"/></symbol><symbol fill="none" viewBox="0 0 8 14" id="grey-arrow-left" xmlns="http://www.w3.org/2000/svg"><path d="M7 13 1 6.93 6.862 1" stroke="#D3D3D3" stroke-width="1.5" stroke-linecap="round" stroke-linejoin="round"/></symbol><symbol fill="none" viewBox="0 0 10 10" id="minus" xmlns="http://www.w3.org/2000/svg"><path d="M5.92 3.84v4.8a.96.96 0 0 1-1.92 0V.96a.96.96 0 0 1 1.92 0v2.88Z" fill="#EB5A1E"/><path d="M5.76 5.92H.96A.96.96 0 0 1 .96 4h7.68a.96.96 0 0 1 0 1.92H5.76Z" fill="#EB5A1E"/></symbol><symbol viewBox="0 0 64 64" id="pizza-logo" xmlns="http://www.w3.org/2000/svg"><defs><style>.hcls-7{fill:red}.hcls-8{fill:#d39953}</style></defs><g data-name="Layer 25" id="hLayer_25"><path d="M32 53a43.539 43.539 0 0 1-26.385-8.84l-4.327 7.079a1.983 1.983 0 0 0 .627 2.693 54.441 54.441 0 0 0 60.17 0 1.983 1.983 0 0 0 .627-2.693l-4.327-7.079A43.539 43.539 0 0 1 32 53Z" style="fill:#8a490e"/><path d="m62.712 51.239-4.327-7.079a44.13 44.13 0 0 1-2.094 1.483l3.421 5.6a1.983 1.983 0 0 1-.627 2.693A53.965 53.965 0 0 1 30.5 62.972c.5.013 1 .028 1.5.028a54.008 54.008 0 0 0 30.085-9.068 1.983 1.983 0 0 0 .627-2.693Z" style="fill:#a16d3e"/><path d="M58.385 44.16a43.8 43.8 0 0 1-52.77 0l20.591-33.68L32 1l5.794 9.48Z" style="fill:#f6b361"/><path d="M37.794 10.48 32 1l-1.5 2.454 4.294 7.026 20.591 33.68A43.523 43.523 0 0 1 30.5 52.969c.5.017 1 .031 1.5.031a43.547 43.547 0 0 0 26.385-8.84Z" style="fill:#f8c281"/><path d="M37.65 10.48A6.88 6.88 0 0 1 35 11a6.986 6.986 0 0 1-3-.68 6.986 6.986 0 0 1-3 .68 6.88 6.88 0 0 1-2.65-.52L32 1Z" style="fill:#ffff97"/><path d="m32 1-1.5 2.517 4.15 6.963a6.757 6.757 0 0 1-1.143.353 6.92 6.92 0 0 0 4.143-.353Z" style="fill:#ffffac"/><path d="m63.565 50.718-4.327-7.079L32.867.5l-.008-.012-.005-.009a.792.792 0 0 0-.111-.132c-.017-.019-.03-.042-.048-.059a1.075 1.075 0 0 0-1.39 0c-.019.018-.033.042-.051.062a.849.849 0 0 0-.108.129l-.005.008-.008.013L4.762 43.639.435 50.718a2.989 2.989 0 0 0 .924 4.046 55.445 55.445 0 0 0 61.282 0 2.989 2.989 0 0 0 .924-4.046ZM56.7 44.15c-.224.159-.448.316-.674.47q-.366.251-.737.492a46.119 46.119 0 0 1-1.445.902 39.838 39.838 0 0 1-1.474.841c-.255.138-.489.265-.735.392s-.513.261-.771.388-.5.245-.747.362-.521.239-.782.355-.508.226-.764.333-.529.217-.8.322l-.77.3c-.258.1-.544.2-.817.292s-.516.182-.775.268c-.276.09-.554.175-.832.26-.26.079-.52.161-.781.235-.284.081-.569.155-.855.229-.259.068-.518.139-.778.2-.292.071-.587.133-.88.2-.258.057-.515.116-.774.168-.3.061-.609.113-.914.167-.252.045-.5.093-.756.134-.318.05-.638.091-.958.135-.244.033-.486.07-.731.1-.336.04-.674.07-1.012.1-.231.022-.461.049-.693.067-.375.03-.754.048-1.131.068-.2.01-.391.026-.587.034Q32.869 52 32 52t-1.731-.034c-.2-.008-.391-.024-.587-.034-.377-.02-.756-.038-1.131-.068-.232-.018-.462-.045-.693-.067-.338-.032-.676-.062-1.012-.1-.245-.029-.488-.066-.732-.1-.319-.044-.639-.085-.957-.135-.253-.041-.5-.089-.757-.134-.3-.054-.61-.106-.913-.167-.259-.052-.516-.111-.774-.168-.293-.065-.588-.127-.88-.2-.26-.063-.519-.134-.778-.2a35.879 35.879 0 0 1-.855-.229c-.261-.074-.521-.156-.781-.235-.278-.085-.556-.17-.832-.26-.259-.086-.517-.178-.775-.268-.273-.1-.546-.191-.817-.292s-.514-.2-.77-.3-.531-.211-.8-.322-.51-.22-.764-.333-.523-.233-.782-.355-.5-.239-.748-.362-.514-.255-.769-.387-.492-.26-.736-.393-.505-.277-.755-.42-.48-.279-.719-.421-.5-.3-.745-.455-.467-.3-.7-.447-.493-.325-.737-.492c-.226-.154-.45-.311-.674-.47-.118-.084-.235-.17-.352-.256l19.717-32.245A8.039 8.039 0 0 0 32 11.412a7.985 7.985 0 0 0 5.339.24L57.05 43.894l-.35.256ZM36.137 9.894a6.07 6.07 0 0 1-3.709-.478 1 1 0 0 0-.856 0 6.073 6.073 0 0 1-3.709.478L32 2.953ZM61.529 53.1a53.442 53.442 0 0 1-59.058 0 .981.981 0 0 1-.329-1.34L5.9 45.614c.105.075.213.145.318.219.222.158.446.312.671.465q.4.275.811.541c.228.148.458.293.688.437q.411.256.824.5.352.208.706.411c.279.159.558.314.84.466q.358.2.72.383.423.219.851.428a35.634 35.634 0 0 0 1.603.747c.249.11.5.22.749.325.292.123.585.24.879.356l.762.3c.3.11.594.215.893.319.256.09.512.18.771.265.3.1.6.191.909.284.259.079.517.159.778.233.308.088.618.168.929.249.259.068.517.138.777.2.316.076.633.144.951.214.26.056.518.116.779.168.324.065.651.121.976.178.257.046.512.094.769.135.337.054.676.1 1.014.143.251.034.5.073.752.1.356.043.715.074 1.074.108.235.022.469.049.7.068.4.031.8.051 1.2.072.2.01.4.026.6.034Q31.093 54 32 54t1.807-.036c.2-.008.4-.024.595-.034.4-.021.8-.041 1.2-.072.235-.018.469-.046.7-.068.359-.034.718-.065 1.075-.108.252-.029.5-.068.752-.1.338-.045.677-.089 1.014-.143.257-.041.512-.089.769-.135.325-.057.652-.113.976-.178.261-.052.519-.112.779-.168.318-.07.635-.138.951-.214.26-.063.518-.133.777-.2.311-.081.621-.161.929-.249.261-.074.519-.154.778-.233.3-.093.608-.185.909-.284.259-.085.515-.175.771-.265.3-.1.6-.209.893-.319l.761-.3a41.24 41.24 0 0 0 1.629-.681c.289-.129.578-.258.865-.393.247-.115.493-.234.738-.355q.427-.21.851-.428.361-.187.72-.383c.282-.152.561-.307.84-.466q.354-.2.706-.411.414-.246.824-.5c.23-.144.46-.289.688-.437q.408-.266.811-.541c.225-.153.449-.307.671-.465.105-.074.213-.144.318-.219l3.756 6.147a.981.981 0 0 1-.324 1.338Z"/><circle class="hcls-7" cx="32" cy="20" r="3"/><path d="M32 24a4 4 0 1 1 4-4 4 4 0 0 1-4 4Zm0-6a2 2 0 1 0 2 2 2 2 0 0 0-2-2Z"/><circle class="hcls-7" cx="18" cy="41" r="3"/><path d="M18 45a4 4 0 1 1 4-4 4 4 0 0 1-4 4Zm0-6a2 2 0 1 0 2 2 2 2 0 0 0-2-2Z"/><circle class="hcls-7" cx="46" cy="41" r="3"/><path d="M46 45a4 4 0 1 1 4-4 4 4 0 0 1-4 4Zm0-6a2 2 0 1 0 2 2 2 2 0 0 0-2-2Z"/><circle class="hcls-7" cx="32" cy="44" r="3"/><path d="M32 48a4 4 0 1 1 4-4 4 4 0 0 1-4 4Zm0-6a2 2 0 1 0 2 2 2 2 0 0 0-2-2Z"/><circle class="hcls-7" cx="24" cy="30" r="3"/><path d="M24 34a4 4 0 1 1 4-4 4 4 0 0 1-4 4Zm0-6a2 2 0 1 0 2 2 2 2 0 0 0-2-2Z"/><circle class="hcls-7" cx="40" cy="30" r="3"/><path d="M40 34a4 4 0 1 1 4-4 4 4 0 0 1-4 4Zm0-6a2 2 0 1 0 2 2 2 2 0 0 0-2-2Z"/><path class="hcls-8" d="M27 38h-2a1 1 0 0 1 0-2h2a1 1 0 0 1 0 2ZM39 38h-2a1 1 0 0 1 0-2h2a1 1 0 0 1 0 2ZM33 30h-2a1 1 0 0 1 0-2h2a1 1 0 0 1 0 2ZM25 24h-2a1 1 0 0 1 0-2h2a1 1 0 0 1 0 2ZM41 24h-2a1 1 0 0 1 0-2h2a1 1 0 0 1 0 2Z"/></g></symbol><symbol fill="none" viewBox="0 0 10 10" id="plus" xmlns="http://www.w3.org/2000/svg"><path d="M5.92 3.84v4.8a.96.96 0 0 1-1.92 0V.96a.96.96 0 0 1 1.92 0v2.88Z" fill="#EB5A1E"/><path d="M5.76 5.92H.96A.96.96 0 0 1 .96 4h7.68a.96.96 0 0 1 0 1.92H5.76Z" fill="#EB5A1E"/></symbol><symbol fill="none" viewBox="0 0 10 10" id="remove" xmlns="http://www.w3.org/2000/svg"><path d="M5.92 3.84v4.8a.96.96 0 0 1-1.92 0V.96a.96.96 0 0 1 1.92 0v2.88Z" fill="currentColor"/><path d="M5.76 5.92H.96A.96.96 0 0 1 .96 4h7.68a.96.96 0 0 1 0 1.92H5.76Z" fill="currentColor"/></symbol><symbol fill="none" stroke="currentColor" viewBox="0 0 24 24" id="search" xmlns="http://www.w3.org/2000/svg"><circle cx="11" cy="11" r="8"/><path d="m21 21-4.35-4.35"/></symbol><symbol class="lsvg-sprite" viewBox="0 0 100 100" id="sprite" xmlns="http://www.w3.org/2000/svg"/><symbol fill="none" viewBox="0 0 20 20" id="trash" xmlns="http://www.w3.org/2000/svg"><path d="M2.5 5h15M6.667 5V3.333a1.667 1.667 0 0 1 1.666-1.666h3.334a1.666 1.666 0 0 1 1.666 1.666V5m2.5 0v11.667a1.667 1.667 0 0 1-1.666 1.666H5.833a1.667 1.667 0 0 1-1.666-1.666V5h11.666ZM8.333 9.167v5M11.667 9.167v5" stroke="#B6B6B6" stroke-width="1.2" stroke-linecap="round" stroke-linejoin="round"/></symbol></svg>